<svg width="24" height="24" viewBox="0 0 24 24" fill="none" xmlns="http://www.w3.org/2000/svg">
<g id="vuesax/bulk/headphone">
<g id="headphone">
<path id="Vector" opacity="0.4" d="M2.75 18.65C2.34 18.65 2 18.31 2 17.9V12.2C1.95 9.49 2.96 6.93 4.84 5.01C6.72 3.1 9.24 2.05 11.95 2.05C17.49 2.05 22 6.56 22 12.1V17.8C22 18.21 21.66 18.55 21.25 18.55C20.84 18.55 20.5 18.21 20.5 17.8V12.1C20.5 7.39 16.67 3.55 11.95 3.55C9.64 3.55 7.5 4.44 5.91 6.06C4.31 7.69 3.46 9.86 3.5 12.18V17.89C3.5 18.31 3.17 18.65 2.75 18.65Z" fill="white"/>
<path id="Vector_2" d="M5.94 12.45H5.81C3.71 12.45 2 14.16 2 16.26V18.14C2 20.24 3.71 21.95 5.81 21.95H5.94C8.04 21.95 9.75 20.24 9.75 18.14V16.26C9.75 14.16 8.04 12.45 5.94 12.45Z" fill="white"/>
<path id="Vector_3" d="M18.19 12.45H18.06C15.96 12.45 14.25 14.16 14.25 16.26V18.14C14.25 20.24 15.96 21.95 18.06 21.95H18.19C20.29 21.95 22 20.24 22 18.14V16.26C22 14.16 20.29 12.45 18.19 12.45Z" fill="white"/>
</g>
</g>
</svg>
